<svg width="20" height="14" viewBox="0 0 20 14" fill="none" xmlns="http://www.w3.org/2000/svg">
<path d="M0 14V11.55C0 11.0542 0.127604 10.5984 0.382812 10.1828C0.638021 9.76719 0.977083 9.45 1.4 9.23125C2.30417 8.77917 3.22292 8.4401 4.15625 8.21406C5.08958 7.98802 6.0375 7.875 7 7.875C7.9625 7.875 8.91042 7.98802 9.84375 8.21406C10.7771 8.4401 11.6958 8.77917 12.6 9.23125C13.0229 9.45 13.362 9.76719 13.6172 10.1828C13.8724 10.5984 14 11.0542 14 11.55V14H0ZM15.75 14V11.375C15.75 10.7333 15.5714 10.1172 15.2141 9.52656C14.8568 8.93594 14.35 8.42917 13.6937 8.00625C14.4375 8.09375 15.1375 8.24323 15.7937 8.45469C16.45 8.66615 17.0625 8.925 17.6313 9.23125C18.1562 9.52292 18.5573 9.8474 18.8344 10.2047C19.1115 10.562 19.25 10.9521 19.25 11.375V14H15.75ZM7 7C6.0375 7 5.21354 6.65729 4.52813 5.97187C3.84271 5.28646 3.5 4.4625 3.5 3.5C3.5 2.5375 3.84271 1.71354 4.52813 1.02812C5.21354 0.342708 6.0375 0 7 0C7.9625 0 8.78646 0.342708 9.47188 1.02812C10.1573 1.71354 10.5 2.5375 10.5 3.5C10.5 4.4625 10.1573 5.28646 9.47188 5.97187C8.78646 6.65729 7.9625 7 7 7ZM15.75 3.5C15.75 4.4625 15.4073 5.28646 14.7219 5.97187C14.0365 6.65729 13.2125 7 12.25 7C12.0896 7 11.8854 6.98177 11.6375 6.94531C11.3896 6.90885 11.1854 6.86875 11.025 6.825C11.4188 6.35833 11.7214 5.84063 11.9328 5.27187C12.1443 4.70312 12.25 4.1125 12.25 3.5C12.25 2.8875 12.1443 2.29688 11.9328 1.72812C11.7214 1.15938 11.4188 0.641667 11.025 0.175C11.2292 0.102083 11.4333 0.0546875 11.6375 0.0328125C11.8417 0.0109375 12.0458 0 12.25 0C13.2125 0 14.0365 0.342708 14.7219 1.02812C15.4073 1.71354 15.75 2.5375 15.75 3.5ZM1.75 12.25H12.25V11.55C12.25 11.3896 12.2099 11.2437 12.1297 11.1125C12.0495 10.9812 11.9438 10.8792 11.8125 10.8063C11.025 10.4125 10.2302 10.1172 9.42812 9.92031C8.62604 9.72344 7.81667 9.625 7 9.625C6.18333 9.625 5.37396 9.72344 4.57188 9.92031C3.76979 10.1172 2.975 10.4125 2.1875 10.8063C2.05625 10.8792 1.95052 10.9812 1.87031 11.1125C1.7901 11.2437 1.75 11.3896 1.75 11.55V12.25ZM7 5.25C7.48125 5.25 7.89323 5.07865 8.23594 4.73594C8.57865 4.39323 8.75 3.98125 8.75 3.5C8.75 3.01875 8.57865 2.60677 8.23594 2.26406C7.89323 1.92135 7.48125 1.75 7 1.75C6.51875 1.75 6.10677 1.92135 5.76406 2.26406C5.42135 2.60677 5.25 3.01875 5.25 3.5C5.25 3.98125 5.42135 4.39323 5.76406 4.73594C6.10677 5.07865 6.51875 5.25 7 5.25Z" fill="#3B82F6"/>
</svg>
