<svg width="12" height="15" viewBox="0 0 12 15" fill="none" xmlns="http://www.w3.org/2000/svg">
<path d="M0 12.75V11.25H1.5V6C1.5 4.9625 1.8125 4.04063 2.4375 3.23438C3.0625 2.42812 3.875 1.9 4.875 1.65V1.125C4.875 0.8125 4.98438 0.546875 5.20312 0.328125C5.42188 0.109375 5.6875 0 6 0C6.3125 0 6.57812 0.109375 6.79688 0.328125C7.01562 0.546875 7.125 0.8125 7.125 1.125V1.65C8.125 1.9 8.9375 2.42812 9.5625 3.23438C10.1875 4.04063 10.5 4.9625 10.5 6V11.25H12V12.75H0ZM6 15C5.5875 15 5.23438 14.8531 4.94063 14.5594C4.64688 14.2656 4.5 13.9125 4.5 13.5H7.5C7.5 13.9125 7.35312 14.2656 7.05937 14.5594C6.76562 14.8531 6.4125 15 6 15ZM3 11.25H9V6C9 5.175 8.70625 4.46875 8.11875 3.88125C7.53125 3.29375 6.825 3 6 3C5.175 3 4.46875 3.29375 3.88125 3.88125C3.29375 4.46875 3 5.175 3 6V11.25Z" fill="#D1D5DB"/>
</svg>
