<svg width="32" height="32" viewBox="0 0 32 32" fill="none" xmlns="http://www.w3.org/2000/svg">
<rect width="32" height="32" rx="16" fill="#0D9488"/>
<path d="M19 22.75V21.25H22V13.75H11.5V16.75H10V10.75C10 10.3375 10.1469 9.98438 10.4406 9.69062C10.7344 9.39687 11.0875 9.25 11.5 9.25H12.25V7.75H13.75V9.25H19.75V7.75H21.25V9.25H22C22.4125 9.25 22.7656 9.39687 23.0594 9.69062C23.3531 9.98438 23.5 10.3375 23.5 10.75V21.25C23.5 21.6625 23.3531 22.0156 23.0594 22.3094C22.7656 22.6031 22.4125 22.75 22 22.75H19ZM13.75 24.25L12.7 23.2L14.6312 21.25H8.5V19.75H14.6312L12.7 17.8L13.75 16.75L17.5 20.5L13.75 24.25ZM11.5 12.25H22V10.75H11.5V12.25ZM11.5 12.25V10.75V12.25Z" fill="#F0FDFA"/>
</svg>
