<svg width="14" height="15" viewBox="0 0 14 15" fill="none" xmlns="http://www.w3.org/2000/svg">
<path d="M1.5 15C1.0875 15 0.734375 14.8531 0.440625 14.5594C0.146875 14.2656 0 13.9125 0 13.5V3C0 2.5875 0.146875 2.23437 0.440625 1.94063C0.734375 1.64688 1.0875 1.5 1.5 1.5H2.25V-3.57628e-07H3.75V1.5H9.75V-3.57628e-07H11.25V1.5H12C12.4125 1.5 12.7656 1.64688 13.0594 1.94063C13.3531 2.23437 13.5 2.5875 13.5 3V13.5C13.5 13.9125 13.3531 14.2656 13.0594 14.5594C12.7656 14.8531 12.4125 15 12 15H1.5ZM1.5 13.5H12V6H1.5V13.5ZM1.5 4.5H12V3H1.5V4.5ZM1.5 4.5V3V4.5ZM6.75 9C6.5375 9 6.35938 8.92813 6.21563 8.78438C6.07188 8.64062 6 8.4625 6 8.25C6 8.0375 6.07188 7.85937 6.21563 7.71562C6.35938 7.57187 6.5375 7.5 6.75 7.5C6.9625 7.5 7.14063 7.57187 7.28438 7.71562C7.42813 7.85937 7.5 8.0375 7.5 8.25C7.5 8.4625 7.42813 8.64062 7.28438 8.78438C7.14063 8.92813 6.9625 9 6.75 9ZM3.75 9C3.5375 9 3.35938 8.92813 3.21562 8.78438C3.07187 8.64062 3 8.4625 3 8.25C3 8.0375 3.07187 7.85937 3.21562 7.71562C3.35938 7.57187 3.5375 7.5 3.75 7.5C3.9625 7.5 4.14063 7.57187 4.28438 7.71562C4.42813 7.85937 4.5 8.0375 4.5 8.25C4.5 8.4625 4.42813 8.64062 4.28438 8.78438C4.14063 8.92813 3.9625 9 3.75 9ZM9.75 9C9.5375 9 9.35937 8.92813 9.21562 8.78438C9.07187 8.64062 9 8.4625 9 8.25C9 8.0375 9.07187 7.85937 9.21562 7.71562C9.35937 7.57187 9.5375 7.5 9.75 7.5C9.9625 7.5 10.1406 7.57187 10.2844 7.71562C10.4281 7.85937 10.5 8.0375 10.5 8.25C10.5 8.4625 10.4281 8.64062 10.2844 8.78438C10.1406 8.92813 9.9625 9 9.75 9ZM6.75 12C6.5375 12 6.35938 11.9281 6.21563 11.7844C6.07188 11.6406 6 11.4625 6 11.25C6 11.0375 6.07188 10.8594 6.21563 10.7156C6.35938 10.5719 6.5375 10.5 6.75 10.5C6.9625 10.5 7.14063 10.5719 7.28438 10.7156C7.42813 10.8594 7.5 11.0375 7.5 11.25C7.5 11.4625 7.42813 11.6406 7.28438 11.7844C7.14063 11.9281 6.9625 12 6.75 12ZM3.75 12C3.5375 12 3.35938 11.9281 3.21562 11.7844C3.07187 11.6406 3 11.4625 3 11.25C3 11.0375 3.07187 10.8594 3.21562 10.7156C3.35938 10.5719 3.5375 10.5 3.75 10.5C3.9625 10.5 4.14063 10.5719 4.28438 10.7156C4.42813 10.8594 4.5 11.0375 4.5 11.25C4.5 11.4625 4.42813 11.6406 4.28438 11.7844C4.14063 11.9281 3.9625 12 3.75 12ZM9.75 12C9.5375 12 9.35937 11.9281 9.21562 11.7844C9.07187 11.6406 9 11.4625 9 11.25C9 11.0375 9.07187 10.8594 9.21562 10.7156C9.35937 10.5719 9.5375 10.5 9.75 10.5C9.9625 10.5 10.1406 10.5719 10.2844 10.7156C10.4281 10.8594 10.5 11.0375 10.5 11.25C10.5 11.4625 10.4281 11.6406 10.2844 11.7844C10.1406 11.9281 9.9625 12 9.75 12Z" fill="#94A3B8"/>
</svg>
