<svg width="40" height="40" viewBox="0 0 40 40" fill="none" xmlns="http://www.w3.org/2000/svg">
<rect width="40" height="40" rx="20" fill="#F9FAFB"/>
<path d="M20.2291 25.8332C20.3958 25.8193 20.5381 25.7533 20.6562 25.6353C20.7742 25.5172 20.8333 25.3748 20.8333 25.2082C20.8333 25.0137 20.7708 24.8575 20.6458 24.7394C20.5208 24.6214 20.361 24.5693 20.1666 24.5832C19.5971 24.6248 18.993 24.4686 18.3541 24.1144C17.7152 23.7603 17.3124 23.1179 17.1458 22.1873C17.118 22.0346 17.0451 21.9096 16.927 21.8123C16.8089 21.7151 16.6735 21.6665 16.5208 21.6665C16.3263 21.6665 16.1666 21.7394 16.0416 21.8853C15.9166 22.0311 15.8749 22.2012 15.9166 22.3957C16.1527 23.6596 16.7083 24.5623 17.5833 25.104C18.4583 25.6457 19.3402 25.8887 20.2291 25.8332ZM19.9999 28.3332C18.0971 28.3332 16.5103 27.6804 15.2395 26.3748C13.9687 25.0693 13.3333 23.4443 13.3333 21.4998C13.3333 20.1109 13.8853 18.6005 14.9895 16.9686C16.0937 15.3366 17.7638 13.5693 19.9999 11.6665C22.236 13.5693 23.9062 15.3366 25.0103 16.9686C26.1145 18.6005 26.6666 20.1109 26.6666 21.4998C26.6666 23.4443 26.0312 25.0693 24.7603 26.3748C23.4895 27.6804 21.9027 28.3332 19.9999 28.3332ZM19.9999 26.6665C21.4444 26.6665 22.6388 26.1769 23.5833 25.1978C24.5277 24.2186 24.9999 22.9859 24.9999 21.4998C24.9999 20.4859 24.5798 19.3401 23.7395 18.0623C22.8992 16.7846 21.6527 15.3887 19.9999 13.8748C18.3471 15.3887 17.1006 16.7846 16.2603 18.0623C15.4201 19.3401 14.9999 20.4859 14.9999 21.4998C14.9999 22.9859 15.4721 24.2186 16.4166 25.1978C17.361 26.1769 18.5555 26.6665 19.9999 26.6665Z" fill="#9CA3AF"/>
</svg>
