<svg width="32" height="32" viewBox="0 0 32 32" fill="none" xmlns="http://www.w3.org/2000/svg">
<rect width="32" height="32" rx="12" fill="#EFF6FF"/>
<path d="M14.875 20.125H17.125V18.25H19V16H17.125V14.125H14.875V16H13V18.25H14.875V20.125ZM12.25 22.75C11.8375 22.75 11.4844 22.6031 11.1906 22.3094C10.8969 22.0156 10.75 21.6625 10.75 21.25V13C10.75 12.5875 10.8969 12.2344 11.1906 11.9406C11.4844 11.6469 11.8375 11.5 12.25 11.5H19.75C20.1625 11.5 20.5156 11.6469 20.8094 11.9406C21.1031 12.2344 21.25 12.5875 21.25 13V21.25C21.25 21.6625 21.1031 22.0156 20.8094 22.3094C20.5156 22.6031 20.1625 22.75 19.75 22.75H12.25ZM12.25 21.25H19.75V13H12.25V21.25ZM11.5 10.75V9.25H20.5V10.75H11.5ZM12.25 13V21.25V13Z" fill="#3B82F6"/>
</svg>
