<svg width="17" height="14" viewBox="0 0 17 14" fill="none" xmlns="http://www.w3.org/2000/svg">
<path d="M15 0H1.64062C0.742188 0 0 0.78125 0 1.67969V11.6797C0 12.5781 0.742188 13.3594 1.64062 13.3594H15C15.8984 13.3594 16.6406 12.5781 16.6406 11.6797V1.67969C16.6406 0.78125 15.8984 0 15 0ZM14.1406 11.6797H2.5C2.03125 11.6797 1.64062 11.2891 1.64062 10.8594V3.35938L7.42188 6.95312C7.96875 7.30469 8.67188 7.30469 9.21875 6.95312L15 3.35938V10.8594C15 11.2891 14.6094 11.6797 14.1406 11.6797ZM8.32031 5.85938L1.64062 1.67969H15L8.32031 5.85938Z" fill="#9CA3AF"/>
</svg>
