<svg width="106" height="122" viewBox="0 0 106 122" fill="none" xmlns="http://www.w3.org/2000/svg">
<rect x="0.5" y="0.5" width="105" height="105" rx="52.5" stroke="#FFFBEB"/>
<rect x="5" y="5" width="96" height="96" rx="48" fill="#FFFBEB"/>
<path d="M65.25 54.75C67.6708 54.75 69.7342 55.6033 71.4404 57.3096C73.1467 59.0158 74 61.0792 74 63.5C74 65.9208 73.1467 67.9842 71.4404 69.6904C69.7342 71.3967 67.6708 72.25 65.25 72.25C62.8292 72.25 60.7658 71.3967 59.0596 69.6904C57.3533 67.9842 56.5 65.9208 56.5 63.5C56.5 61.0792 57.3533 59.0158 59.0596 57.3096C60.7658 55.6033 62.8292 54.75 65.25 54.75ZM64.2744 68.4033V70.208H66.0791V68.4033H64.2744ZM67 39C67.9625 39 68.7863 39.3429 69.4717 40.0283C70.1571 40.7137 70.5 41.5375 70.5 42.5V52.4746C69.6835 52.0664 68.8377 51.7608 67.9629 51.5566C67.0879 51.3525 66.1833 51.25 65.25 51.25C61.8375 51.25 58.9425 52.4383 56.5654 54.8154C54.1883 57.1925 53 60.0875 53 63.5C53 64.0833 53.0434 64.6667 53.1309 65.25C53.2184 65.8333 53.3504 66.4167 53.5254 67H39C38.0375 67 37.2137 66.6571 36.5283 65.9717C35.8429 65.2863 35.5 64.4625 35.5 63.5V42.5C35.5 41.5375 35.8429 40.7137 36.5283 40.0283C37.2137 39.3429 38.0375 39 39 39H67ZM64.2744 57.5752V65.6963H66.0791V57.5752H64.2744ZM53 51.25L39 42.5V46L53 54.75L67 46V42.5L53 51.25Z" fill="#F59E0B"/>
</svg>
