<svg width="48" height="48" viewBox="0 0 48 48" fill="none" xmlns="http://www.w3.org/2000/svg">
<rect width="48" height="48" rx="24" fill="#F0FDFA"/>
<path d="M16 34C15.45 34 14.9792 33.8042 14.5875 33.4125C14.1958 33.0208 14 32.55 14 32V20C14 19.45 14.1958 18.9792 14.5875 18.5875C14.9792 18.1958 15.45 18 16 18H20V16C20 15.45 20.1958 14.9792 20.5875 14.5875C20.9792 14.1958 21.45 14 22 14H26C26.55 14 27.0208 14.1958 27.4125 14.5875C27.8042 14.9792 28 15.45 28 16V18H32C32.55 18 33.0208 18.1958 33.4125 18.5875C33.8042 18.9792 34 19.45 34 20V32C34 32.55 33.8042 33.0208 33.4125 33.4125C33.0208 33.8042 32.55 34 32 34H16ZM16 32H32V20H16V32ZM22 18H26V16H22V18ZM16 32V20V32ZM23 27V30H25V27H28V25H25V22H23V25H20V27H23Z" fill="#0D9488"/>
</svg>
