<svg width="40" height="40" viewBox="0 0 40 40" fill="none" xmlns="http://www.w3.org/2000/svg">
<rect width="40" height="40" rx="20" fill="#F9FAFB"/>
<path d="M16.25 28.3332V20.7082C15.5417 20.5137 14.9479 20.1248 14.4688 19.5415C13.9896 18.9582 13.75 18.2776 13.75 17.4998V11.6665H15.4167V17.4998H16.25V11.6665H17.9167V17.4998H18.75V11.6665H20.4167V17.4998C20.4167 18.2776 20.1771 18.9582 19.6979 19.5415C19.2188 20.1248 18.625 20.5137 17.9167 20.7082V28.3332H16.25ZM24.5833 28.3332V21.6665H22.0833V15.8332C22.0833 14.6804 22.4896 13.6978 23.3021 12.8853C24.1146 12.0728 25.0972 11.6665 26.25 11.6665V28.3332H24.5833Z" fill="#9CA3AF"/>
</svg>
