<svg width="15" height="20" viewBox="0 0 15 20" fill="none" xmlns="http://www.w3.org/2000/svg">
<path d="M1.83333 19.25C1.32917 19.25 0.897569 19.0705 0.538542 18.7115C0.179514 18.3524 0 17.9208 0 17.4167V8.25C0 7.74583 0.179514 7.31424 0.538542 6.95521C0.897569 6.59618 1.32917 6.41667 1.83333 6.41667H2.75V4.58333C2.75 3.31528 3.19687 2.23438 4.09062 1.34063C4.98437 0.446875 6.06528 0 7.33333 0C8.60139 0 9.68229 0.446875 10.576 1.34063C11.4698 2.23438 11.9167 3.31528 11.9167 4.58333V6.41667H12.8333C13.3375 6.41667 13.7691 6.59618 14.1281 6.95521C14.4872 7.31424 14.6667 7.74583 14.6667 8.25V17.4167C14.6667 17.9208 14.4872 18.3524 14.1281 18.7115C13.7691 19.0705 13.3375 19.25 12.8333 19.25H1.83333ZM1.83333 17.4167H12.8333V8.25H1.83333V17.4167ZM8.62812 14.1281C8.98715 13.7691 9.16667 13.3375 9.16667 12.8333C9.16667 12.3292 8.98715 11.8976 8.62812 11.5385C8.2691 11.1795 7.8375 11 7.33333 11C6.82917 11 6.39757 11.1795 6.03854 11.5385C5.67951 11.8976 5.5 12.3292 5.5 12.8333C5.5 13.3375 5.67951 13.7691 6.03854 14.1281C6.39757 14.4872 6.82917 14.6667 7.33333 14.6667C7.8375 14.6667 8.2691 14.4872 8.62812 14.1281ZM4.58333 6.41667H10.0833V4.58333C10.0833 3.81944 9.81597 3.17014 9.28125 2.63542C8.74653 2.10069 8.09722 1.83333 7.33333 1.83333C6.56944 1.83333 5.92014 2.10069 5.38542 2.63542C4.85069 3.17014 4.58333 3.81944 4.58333 4.58333V6.41667Z" fill="#9CA3AF"/>
</svg>
