<svg width="19" height="16" viewBox="0 0 19 16" fill="none" xmlns="http://www.w3.org/2000/svg">
<path d="M9.17969 3.04688C11.4844 3.04688 13.3594 4.88281 13.3594 7.1875C13.3594 7.61719 13.2812 8.04688 13.1641 8.39844L15.7031 10.9766C16.8359 9.96094 17.7734 8.67188 18.3594 7.1875C16.9141 3.55469 13.3594 0.9375 9.17969 0.9375C8.125 0.9375 7.10938 1.13281 6.13281 1.40625L7.96875 3.24219C8.35938 3.125 8.75 3.04688 9.17969 3.04688ZM1.44531 0.234375C1.09375 0.585938 1.09375 1.09375 1.44531 1.40625L3.08594 3.08594C1.71875 4.14062 0.664062 5.54688 0 7.1875C1.44531 10.8594 5 13.4375 9.17969 13.4375C10.4297 13.4375 11.6406 13.2031 12.7734 12.7734L15.0391 15.0391C15.3516 15.3516 15.8984 15.3516 16.2109 15.0391C16.5234 14.7266 16.5234 14.1797 16.2109 13.8672L2.61719 0.234375C2.30469 -0.078125 1.75781 -0.078125 1.44531 0.234375ZM9.17969 11.3672C6.875 11.3672 5 9.49219 5 7.1875C5 6.5625 5.15625 5.9375 5.42969 5.42969L6.71875 6.71875C6.71875 6.875 6.67969 7.03125 6.67969 7.1875C6.67969 8.59375 7.8125 9.6875 9.17969 9.6875C9.33594 9.6875 9.49219 9.6875 9.64844 9.64844L10.9766 10.9375C10.4297 11.2109 9.80469 11.3672 9.17969 11.3672ZM11.6406 6.91406C11.5234 5.74219 10.625 4.84375 9.45312 4.72656L11.6406 6.91406Z" fill="#9CA3AF"/>
</svg>
