<svg width="48" height="48" viewBox="0 0 48 48" fill="none" xmlns="http://www.w3.org/2000/svg">
<rect width="48" height="48" rx="24" fill="#F0FDFA"/>
<path fill-rule="evenodd" clip-rule="evenodd" d="M12.597 19.0456L14.3223 31.1228C14.4509 31.1397 14.5993 31.1588 14.7651 31.1798C15.4006 31.2601 16.2921 31.3673 17.315 31.4744C19.3672 31.6894 21.9234 31.9017 24 31.9017C26.0766 31.9017 28.6328 31.6894 30.685 31.4744C31.7079 31.3673 32.5994 31.2601 33.2349 31.1798C33.4007 31.1588 33.5491 31.1397 33.6777 31.1228L35.403 19.0456C35.2682 18.9755 35.1046 18.8925 34.9144 18.7996C34.3012 18.5002 33.4134 18.0991 32.3239 17.6977C30.1387 16.8926 27.1733 16.0978 24 16.0978C20.8267 16.0978 17.8613 16.8926 15.6761 17.6977C14.5866 18.0991 13.6988 18.5002 13.0856 18.7996C12.8954 18.8925 12.7318 18.9755 12.597 19.0456ZM36.2353 18.6272L36.6206 17.9666C36.8893 18.1234 37.0363 18.4273 36.9923 18.7353L35.1099 31.9118C35.0618 32.2487 34.7967 32.5133 34.4597 32.5608L34.3529 31.8036C34.4597 32.5608 34.4598 32.5608 34.4597 32.5608L34.4409 32.5635L34.3876 32.5708C34.3409 32.5773 34.2723 32.5867 34.1836 32.5986C34.0063 32.6224 33.7488 32.6564 33.4268 32.6971C32.7829 32.7785 31.8803 32.887 30.8444 32.9955C28.779 33.2119 26.1587 33.4311 24 33.4311C21.8413 33.4311 19.221 33.2119 17.1556 32.9955C16.1197 32.887 15.2171 32.7785 14.5732 32.6971C14.2512 32.6564 13.9937 32.6224 13.8164 32.5986C13.7277 32.5867 13.6591 32.5773 13.6124 32.5708L13.5591 32.5635L13.5417 32.561L13.5404 32.5608C13.5404 32.5608 13.5403 32.5608 13.6471 31.8036L13.5404 32.5608C13.2034 32.5133 12.9382 32.2487 12.8901 31.9118L11.0077 18.7353C10.9637 18.4273 11.1107 18.1234 11.3794 17.9666L11.7647 18.6272C11.3794 17.9666 11.3792 17.9668 11.3794 17.9666L11.3818 17.9653L11.3862 17.9627L11.4012 17.9541L11.4554 17.9234C11.5021 17.8971 11.5699 17.8596 11.6577 17.8123C11.8332 17.7178 12.0885 17.5845 12.4144 17.4253C13.066 17.1071 14.0017 16.6847 15.1474 16.2626C17.4329 15.4206 20.5851 14.5684 24 14.5684C27.4149 14.5684 30.5671 15.4206 32.8526 16.2626C33.9983 16.6847 34.934 17.1071 35.5856 17.4253C35.9115 17.5845 36.1668 17.7178 36.3423 17.8123C36.4301 17.8596 36.4979 17.8971 36.5446 17.9234L36.5988 17.9541L36.6138 17.9627L36.6182 17.9653L36.6197 17.9661L36.6206 17.9666C36.6208 17.9668 36.6206 17.9666 36.2353 18.6272Z" fill="#0D9488"/>
<path fill-rule="evenodd" clip-rule="evenodd" d="M23.9999 20.2012C24.4089 20.2012 24.7404 20.5327 24.7404 20.9416V23.26H27.0588C27.4677 23.26 27.7992 23.5915 27.7992 24.0004C27.7992 24.4094 27.4677 24.7409 27.0588 24.7409H24.7404V27.0596C24.7404 27.4685 24.4089 27.8 23.9999 27.8C23.591 27.8 23.2595 27.4685 23.2595 27.0596V24.7409H20.9411C20.5322 24.7409 20.2007 24.4094 20.2007 24.0004C20.2007 23.5915 20.5322 23.26 20.9411 23.26H23.2595V20.9416C23.2595 20.5327 23.591 20.2012 23.9999 20.2012Z" fill="#0F766E"/>
</svg>
