<svg width="19" height="30" viewBox="0 0 19 30" fill="none" xmlns="http://www.w3.org/2000/svg">
<path d="M11.475 17.525L12.525 16.475L9.75 13.7V10.25H8.25V14.3L11.475 17.525ZM9 21.5C7.9625 21.5 6.9875 21.3031 6.075 20.9094C5.1625 20.5156 4.36875 19.9812 3.69375 19.3063C3.01875 18.6312 2.48438 17.8375 2.09063 16.925C1.69688 16.0125 1.5 15.0375 1.5 14C1.5 12.9625 1.69688 11.9875 2.09063 11.075C2.48438 10.1625 3.01875 9.36875 3.69375 8.69375C4.36875 8.01875 5.1625 7.48438 6.075 7.09063C6.9875 6.69687 7.9625 6.5 9 6.5C10.0375 6.5 11.0125 6.69687 11.925 7.09063C12.8375 7.48438 13.6312 8.01875 14.3062 8.69375C14.9812 9.36875 15.5156 10.1625 15.9094 11.075C16.3031 11.9875 16.5 12.9625 16.5 14C16.5 15.0375 16.3031 16.0125 15.9094 16.925C15.5156 17.8375 14.9812 18.6312 14.3062 19.3063C13.6312 19.9812 12.8375 20.5156 11.925 20.9094C11.0125 21.3031 10.0375 21.5 9 21.5ZM9 20C10.6625 20 12.0781 19.4156 13.2469 18.2469C14.4156 17.0781 15 15.6625 15 14C15 12.3375 14.4156 10.9219 13.2469 9.75313C12.0781 8.58438 10.6625 8 9 8C7.3375 8 5.92187 8.58438 4.75312 9.75313C3.58438 10.9219 3 12.3375 3 14C3 15.6625 3.58438 17.0781 4.75312 18.2469C5.92187 19.4156 7.3375 20 9 20Z" fill="#94A3B8"/>
</svg>
