<svg width="32" height="17" viewBox="0 0 32 17" fill="none" xmlns="http://www.w3.org/2000/svg">
<path d="M8.5 17C6.13889 17 4.13194 16.1736 2.47917 14.5208C0.826389 12.8681 0 10.8611 0 8.5C0 6.13889 0.826389 4.13194 2.47917 2.47917C4.13194 0.826389 6.13889 0 8.5 0H22.6667C25.0278 0 27.0347 0.826389 28.6875 2.47917C30.3403 4.13194 31.1667 6.13889 31.1667 8.5C31.1667 10.8611 30.3403 12.8681 28.6875 14.5208C27.0347 16.1736 25.0278 17 22.6667 17H8.5ZM11.5104 11.5104C12.3368 10.684 12.75 9.68056 12.75 8.5C12.75 7.31944 12.3368 6.31597 11.5104 5.48958C10.684 4.66319 9.68056 4.25 8.5 4.25C7.31944 4.25 6.31597 4.66319 5.48958 5.48958C4.66319 6.31597 4.25 7.31944 4.25 8.5C4.25 9.68056 4.66319 10.684 5.48958 11.5104C6.31597 12.3368 7.31944 12.75 8.5 12.75C9.68056 12.75 10.684 12.3368 11.5104 11.5104Z" fill="#E3E3E3"/>
</svg>
