<svg width="48" height="48" viewBox="0 0 48 48" fill="none" xmlns="http://www.w3.org/2000/svg">
<rect width="48" height="48" rx="24" fill="#F0FDFA"/>
<path d="M16 32C15.45 32 14.9792 31.8042 14.5875 31.4125C14.1958 31.0208 14 30.55 14 30V18C14 17.45 14.1958 16.9792 14.5875 16.5875C14.9792 16.1958 15.45 16 16 16H28C28.55 16 29.0208 16.1958 29.4125 16.5875C29.8042 16.9792 30 17.45 30 18V22.5L34 18.5V29.5L30 25.5V30C30 30.55 29.8042 31.0208 29.4125 31.4125C29.0208 31.8042 28.55 32 28 32H16ZM16 30H28V18H16V30ZM16 30V18V30Z" fill="#0D9488"/>
</svg>
