<svg width="40" height="40" viewBox="0 0 40 40" fill="none" xmlns="http://www.w3.org/2000/svg">
<rect width="40" height="40" rx="20" fill="#F9FAFB"/>
<path d="M15.4166 28.9582L17.7499 17.2082L16.2499 17.7915V20.6248H14.5833V16.7082L18.7916 14.9165C18.986 14.8332 19.1909 14.7846 19.4062 14.7707C19.6214 14.7568 19.8263 14.7846 20.0208 14.854C20.2152 14.9234 20.3992 15.0207 20.5728 15.1457C20.7464 15.2707 20.8888 15.4304 20.9999 15.6248L21.8333 16.9582C22.1944 17.5415 22.6839 18.0207 23.302 18.3957C23.9201 18.7707 24.6249 18.9582 25.4166 18.9582V20.6248C24.4444 20.6248 23.5763 20.4234 22.8124 20.0207C22.0485 19.6179 21.3958 19.104 20.8541 18.479L20.3333 21.0415L22.0833 22.7082V28.9582H20.4166V23.5415L18.6666 22.2082L17.1666 28.9582H15.4166ZM20.8333 14.3748C20.3749 14.3748 19.9826 14.2116 19.6562 13.8853C19.3298 13.5589 19.1666 13.1665 19.1666 12.7082C19.1666 12.2498 19.3298 11.8575 19.6562 11.5311C19.9826 11.2047 20.3749 11.0415 20.8333 11.0415C21.2916 11.0415 21.6839 11.2047 22.0103 11.5311C22.3367 11.8575 22.4999 12.2498 22.4999 12.7082C22.4999 13.1665 22.3367 13.5589 22.0103 13.8853C21.6839 14.2116 21.2916 14.3748 20.8333 14.3748Z" fill="#9CA3AF"/>
</svg>
